<svg width="48" height="48" viewBox="0 0 48 48" fill="none" xmlns="http://www.w3.org/2000/svg">
<path d="M23.78 27.22L18.82 22.24C17.7591 21.2335 16.3524 20.6724 14.89 20.6724C13.4276 20.6724 12.0209 21.2335 10.96 22.24L4 29.2V38C4.00475 39.5898 4.63841 41.1132 5.7626 42.2374C6.8868 43.3616 8.41016 43.9952 10 44H34C34.276 44.004 34.55 43.978 34.82 43.92C36.2504 43.7413 37.5627 43.0352 38.5 41.94L23.78 27.22ZM45.414 8.586L39.414 2.586C39.0389 2.21106 38.5303 2.00043 38 2.00043C37.4697 2.00043 36.9611 2.21106 36.586 2.586L30.586 8.586C30.2217 8.9632 30.0201 9.46841 30.0247 9.9928C30.0292 10.5172 30.2395 11.0188 30.6104 11.3896C30.9812 11.7605 31.4828 11.9708 32.0072 11.9753C32.5316 11.9799 33.0368 11.7783 33.414 11.414L36 8.828V20C36 20.5304 36.2107 21.0391 36.5858 21.4142C36.9609 21.7893 37.4696 22 38 22C38.5304 22 39.0391 21.7893 39.4142 21.4142C39.7893 21.0391 40 20.5304 40 20V8.828L42.586 11.414C42.9632 11.7783 43.4684 11.9799 43.9928 11.9753C44.5172 11.9708 45.0188 11.7605 45.3896 11.3896C45.7605 11.0188 45.9708 10.5172 45.9753 9.9928C45.9799 9.46841 45.7783 8.9632 45.414 8.586Z" fill="#A1C5D3"/>
<path d="M25.78 29.22L38.5 41.94C39.466 40.856 40 39.454 40 38V32.76L33.04 25.82C31.9814 24.8089 30.5739 24.2448 29.11 24.2448C27.6461 24.2448 26.2386 24.8089 25.18 25.82L23.784 27.216L25.78 29.22Z" fill="#0B2641" fill-opacity="0.6"/>
<path d="M38 22C37.4696 22 36.9609 21.7893 36.5858 21.4142C36.2107 21.0391 36 20.5304 36 20V8.828L33.414 11.414C33.0368 11.7783 32.5316 11.9799 32.0072 11.9753C31.4828 11.9708 30.9812 11.7605 30.6104 11.3896C30.2395 11.0188 30.0292 10.5172 30.0247 9.9928C30.0201 9.46841 30.2217 8.9632 30.586 8.586L31.172 8H10C8.41016 8.00475 6.8868 8.63841 5.7626 9.7626C4.63841 10.8868 4.00475 12.4102 4 14V29.2L10.96 22.24C12.0209 21.2335 13.4276 20.6724 14.89 20.6724C16.3524 20.6724 17.7591 21.2335 18.82 22.24L23.78 27.22L23.784 27.216L25.18 25.82C26.2386 24.8089 27.6461 24.2448 29.11 24.2448C30.5739 24.2448 31.9814 24.8089 33.04 25.82L40 32.76V20C40 20.5304 39.7893 21.0391 39.4142 21.4142C39.0391 21.7893 38.5304 22 38 22Z" fill="#0B2641"/>
</svg>
