<svg width="273" height="273" viewBox="0 0 273 273" fill="none" xmlns="http://www.w3.org/2000/svg">
<g clip-path="url(#clip0_188_1759)">
<mask id="mask0_188_1759" style="mask-type:luminance" maskUnits="userSpaceOnUse" x="0" y="0" width="273" height="273">
<path d="M273 0H0V273H273V0Z" fill="white"/>
</mask>
<g mask="url(#mask0_188_1759)">
<path d="M205.044 174.078H67.9461C60.6713 174.078 54.7749 168.181 54.7749 160.906V98.4201C54.7749 91.1453 60.6713 85.2489 67.9461 85.2489H205.044C212.318 85.2489 218.215 91.1453 218.215 98.4201V160.906C218.215 168.181 212.318 174.078 205.044 174.078Z" fill="#7DBAF7"/>
<path d="M65.9935 81.9154L125.289 44.1163C131.454 40.186 141.549 40.186 147.713 44.1163L207.009 81.9154C213.186 85.8457 212.344 89.0627 205.159 89.0627H67.8569C60.6714 89.0627 59.8291 85.8457 65.9935 81.9154Z" fill="#137EE8"/>
<path d="M207.185 83.9044H67.2598V170.007H207.185V83.9044Z" fill="white"/>
<path d="M217.156 93.2869C216.098 95.2018 213.522 99.2872 210.345 101.28L154.308 136.482L194.702 159.767C196.285 160.685 196.86 162.765 195.98 164.412C195.381 165.535 194.271 166.148 193.109 166.149C192.573 166.149 192.037 166.022 191.539 165.728L147.444 140.315C144.152 141.644 140.413 142.386 136.495 142.388C132.602 142.39 128.849 141.651 125.556 140.326L81.4862 165.784C80.9886 166.078 80.4399 166.206 79.9166 166.206C78.768 166.207 77.6446 165.595 77.0569 164.472C76.1754 162.813 76.7487 160.745 78.3308 159.826L118.688 136.5L62.603 101.355C59.4369 99.3652 57.405 94.2101 56.3447 92.2962C54.5591 94.6838 54.7531 99.6994 54.7544 102.15L54.7924 177.322C54.7962 184.827 60.6829 190.976 67.8811 190.972L205.17 190.902C212.368 190.899 218.249 184.744 218.245 177.24L218.207 102.067C218.218 99.6167 218.548 96.1833 217.156 93.2869Z" fill="#137EE8"/>
<path d="M115 98.1212C110.952 98.1212 107.684 101.413 107.684 105.491C107.684 109.568 110.952 112.86 115 112.86C119.047 112.86 122.316 109.568 122.316 105.491C122.316 101.413 119.047 98.1212 115 98.1212Z" fill="#7DBAF7"/>
<path d="M164.142 98.5605H128.047V102.67H164.142V98.5605Z" fill="#7DBAF7"/>
<path d="M164.142 108.133H128.047V112.242H164.142V108.133Z" fill="#7DBAF7"/>
</g>
</g>
<defs>
<clipPath id="clip0_188_1759">
<rect width="273" height="273" fill="white"/>
</clipPath>
</defs>
</svg>
