<svg width="12" height="12" viewBox="0 0 12 12" fill="none" xmlns="http://www.w3.org/2000/svg">
<path d="M1.49975 2.9995C2.32804 2.9995 2.9995 2.32804 2.9995 1.49975C2.9995 0.671462 2.32804 0 1.49975 0C0.671462 0 0 0.671462 0 1.49975C0 2.32804 0.671462 2.9995 1.49975 2.9995Z" fill="white"/>
<path d="M2.74954 4.00123H0.249959C0.111981 4.00123 0 4.11322 0 4.25119V11.75C0 11.8879 0.111981 11.9999 0.249959 11.9999H2.74954C2.88752 11.9999 2.9995 11.8879 2.9995 11.75V4.25119C2.9995 4.11322 2.88752 4.00123 2.74954 4.00123Z" fill="white"/>
<path d="M10.1982 3.58538C9.12989 3.21944 7.79361 3.54089 6.99225 4.11729C6.96475 4.00981 6.86677 3.92982 6.75029 3.92982H4.2507C4.11272 3.92982 4.00074 4.0418 4.00074 4.17978V11.6785C4.00074 11.8165 4.11272 11.9285 4.2507 11.9285H6.75029C6.88826 11.9285 7.00024 11.8165 7.00024 11.6785V6.28943C7.40418 5.94149 7.92459 5.83051 8.35052 6.01148C8.76345 6.18595 8.99991 6.61188 8.99991 7.17928V11.6785C8.99991 11.8165 9.1119 11.9285 9.24987 11.9285H11.7495C11.8874 11.9285 11.9994 11.8165 11.9994 11.6785V6.67587C11.9709 4.62171 11.0046 3.86133 10.1982 3.58538Z" fill="white"/>
</svg>
