<svg width="13" height="11" viewBox="0 0 13 11" fill="none" xmlns="http://www.w3.org/2000/svg">
<path d="M12.9261 1.33774C12.8402 1.24065 12.7017 1.21623 12.5881 1.27611C12.5175 1.31332 12.3847 1.36215 12.227 1.41041C12.4259 1.13833 12.5859 0.833699 12.6565 0.55988C12.687 0.441864 12.6424 0.317454 12.5452 0.24711C12.448 0.177347 12.3185 0.177347 12.2213 0.24711C12.0681 0.356986 11.3289 0.687197 10.8614 0.794167C9.80505 -0.157515 8.57572 -0.256346 7.29779 0.511046C6.25893 1.13484 6.03285 2.40336 6.07694 3.17657C3.6991 2.94112 2.22108 1.64934 1.3891 0.580227C1.33088 0.505232 1.23706 0.4657 1.14888 0.471514C1.05619 0.47849 0.972539 0.531393 0.925062 0.613365C0.531677 1.29646 0.422592 2.05164 0.610806 2.79752C0.713674 3.20447 0.89341 3.56317 1.10197 3.85385C1.00193 3.80327 0.90528 3.7399 0.814281 3.66433C0.73063 3.5934 0.613632 3.58003 0.514721 3.62712C0.416374 3.67537 0.353636 3.77769 0.353636 3.88989C0.353636 5.17063 1.13249 6.02522 1.85992 6.4717C1.74235 6.45717 1.6197 6.43043 1.49592 6.39148C1.38966 6.35834 1.27436 6.39148 1.20088 6.47752C1.12741 6.56298 1.10989 6.68506 1.15567 6.78912C1.56431 7.71871 2.33865 8.35821 3.29668 8.59017C2.46017 9.09537 1.34049 9.34303 0.315202 9.22152C0.182378 9.20234 0.0557715 9.28896 0.0139461 9.42035C-0.0278793 9.55173 0.0269459 9.69591 0.143944 9.76335C1.6994 10.6615 3.10564 10.9825 4.32083 10.9825C6.08937 10.9825 7.45435 10.3034 8.28521 9.73544C10.5251 8.20647 11.9212 5.4613 11.7268 3.00507C12.0857 2.73241 12.6226 2.22896 12.9555 1.68771C13.0245 1.57842 13.012 1.43424 12.9261 1.33774Z" fill="white"/>
</svg>
