<svg width="7" height="13" viewBox="0 0 7 13" fill="none" xmlns="http://www.w3.org/2000/svg">
<path d="M5.11496 2.02942H6.73021C6.87882 2.02942 6.99942 1.91577 6.99942 1.77574V0.253677C6.99942 0.113647 6.87882 0 6.73021 0H5.11496C3.48248 0 2.15367 1.25164 2.15367 2.79045V4.56619H0.269209C0.120605 4.56619 0 4.67984 0 4.81987V6.34193C0 6.48196 0.120605 6.59561 0.269209 6.59561H2.15367V11.9228C2.15367 12.0629 2.27427 12.1765 2.42288 12.1765H4.03813C4.18673 12.1765 4.30734 12.0629 4.30734 11.9228V6.59561H6.1918C6.30756 6.59561 6.41039 6.5256 6.44755 6.4221L6.98596 4.90003C7.01342 4.82291 6.99942 4.73768 6.94881 4.67121C6.89766 4.60526 6.8169 4.56619 6.73021 4.56619H4.30734V2.79045C4.30734 2.37087 4.66969 2.02942 5.11496 2.02942Z" fill="white"/>
</svg>
